<?xml version="1.0" encoding="iso-8859-1"?>
<!-- Generator: Adobe Illustrator 19.0.0, SVG Export Plug-In . SVG Version: 6.00 Build 0)  -->
<svg version="1.1" id="Capa_1" xmlns="http://www.w3.org/2000/svg" xmlns:xlink="http://www.w3.org/1999/xlink" x="0px" y="0px"
	 viewBox="0 0 512.1 512.1" style="enable-background:new 0 0 512.1 512.1;" xml:space="preserve">
<path style="fill:#64B5F6;" d="M499.884,479.3c-20.4-5-35.8-19.9-46.6-34.7c37.5-29.4,58.8-69.9,58.8-113c0-36-15-69.2-40.1-95.7
	c-28.7,92.2-129.1,161-247.9,161c-15.9,0-31.6-1.2-46.9-3.6c-8.9,4.3-18.2,8.4-26.7,11.8c32.3,49.6,96.2,83.4,169.6,83.4
	c15,0,29.6-1.4,43.4-4.1c45.9,23.4,87.8,27.7,112.4,27.7c13.5,0,21.8-1.3,22.8-1.4c7.5-1.2,13.1-7.6,13.4-15.1
	C512.384,487.8,507.284,481.1,499.884,479.3z"/>
<path style="fill:#2196F3;" d="M224.084,0c-123.5,0-224,81.8-224,182.4c0,50.9,25.6,98.7,70.8,133.1c-14.9,23.3-34.3,46.9-58.7,53
	c-7.7,1.9-12.9,9.2-12.1,17.1s7.3,14,15.3,14.4c0.4,0,1.7,0.1,4,0.1c16.5,0,80.4-2.7,152.9-40.3c16.6,3.4,34,5,51.7,5
	c123.5,0,224-81.8,224-182.4S347.584,0,224.084,0z"/>
<g>
</g>
<g>
</g>
<g>
</g>
<g>
</g>
<g>
</g>
<g>
</g>
<g>
</g>
<g>
</g>
<g>
</g>
<g>
</g>
<g>
</g>
<g>
</g>
<g>
</g>
<g>
</g>
<g>
</g>
</svg>
