<svg id="Layer_1" enable-background="new 0 0 512 512" height="512" viewBox="0 0 512 512" width="512" xmlns="http://www.w3.org/2000/svg"><g><path d="m436.31 107.425c-48.24-37.44-112.28-58.06-180.31-58.06-6.2 0-12.37.17-18.5.51-61.08 3.39-117.97 23.52-161.81 57.55-48.81 37.88-75.69 88.42-75.69 142.31 0 48.61 22.29 95.16 62.89 131.62-11.95 27.81-27.25 50.79-45.52 68.36-2.18 2.1-2.89 5.3-1.8 8.12 1.1 2.82 3.78 4.71 6.8 4.79.21 0 .81.01 1.78.01 10.59 0 64.83-1.51 124.87-30.79 28.04 10.11 57.71 16.05 88.47 17.75 6.13.34 12.3.51 18.51.51 68.03 0 132.07-20.63 180.31-58.07 48.81-37.88 75.69-88.42 75.69-142.3 0-53.89-26.88-104.43-75.69-142.31z" fill="#ff3e7a"/><g><g><path d="m398.32 255.999c0 20.68-16.799 37.5-37.453 37.5-4.375 0-8.579-.75-12.484-2.14-14.532-5.16-24.969-19.06-24.969-35.36s10.437-30.2 24.969-35.36c3.905-1.39 8.11-2.14 12.484-2.14 20.654 0 37.453 16.82 37.453 37.5z" fill="#fff"/><path d="m398.32 255.999c0 20.68-16.799 37.5-37.453 37.5-4.375 0-8.579-.75-12.484-2.14 14.532-5.16 24.969-19.06 24.969-35.36s-10.437-30.2-24.969-35.36c3.905-1.39 8.11-2.14 12.484-2.14 20.654 0 37.453 16.82 37.453 37.5z" fill="#dcecf4"/></g><g><path d="m188.586 255.996c0 20.68-16.799 37.5-37.453 37.5-4.375 0-8.579-.75-12.484-2.14-14.532-5.16-24.969-19.06-24.969-35.36s10.437-30.2 24.969-35.36c3.905-1.39 8.11-2.14 12.484-2.14 20.654 0 37.453 16.82 37.453 37.5z" fill="#fff"/><path d="m188.586 255.996c0 20.68-16.799 37.5-37.453 37.5-4.375 0-8.579-.75-12.484-2.14 14.532-5.16 24.969-19.06 24.969-35.36s-10.437-30.2-24.969-35.36c3.905-1.39 8.11-2.14 12.484-2.14 20.654 0 37.453 16.82 37.453 37.5z" fill="#dcecf4"/></g><g><path d="m293.455 255.996c0 20.68-16.799 37.5-37.453 37.5-4.375 0-8.579-.75-12.484-2.14-14.532-5.16-24.969-19.06-24.969-35.36s10.437-30.2 24.969-35.36c3.905-1.39 8.11-2.14 12.484-2.14 20.654 0 37.453 16.82 37.453 37.5z" fill="#fff"/><path d="m293.455 255.996c0 20.68-16.799 37.5-37.453 37.5-4.375 0-8.579-.75-12.484-2.14 14.532-5.16 24.969-19.06 24.969-35.36s-10.437-30.2-24.969-35.36c3.905-1.39 8.11-2.14 12.484-2.14 20.654 0 37.453 16.82 37.453 37.5z" fill="#dcecf4"/></g></g><path d="m512 249.735c0 53.88-26.88 104.42-75.69 142.3-48.24 37.44-112.28 58.07-180.31 58.07-6.21 0-12.38-.17-18.51-.51 61.08-3.39 117.98-23.53 161.82-57.56 48.81-37.88 75.69-88.42 75.69-142.3 0-53.89-26.88-104.43-75.69-142.31-43.84-34.03-100.73-54.16-161.81-57.55 6.13-.34 12.3-.51 18.5-.51 68.03 0 132.07 20.62 180.31 58.06 48.81 37.88 75.69 88.42 75.69 142.31z" fill="#b2006e"/></g></svg>