<svg height="512" viewBox="0 0 128 128" width="512" xmlns="http://www.w3.org/2000/svg"><g id="Circle_Grid" data-name="Circle Grid"><circle cx="64" cy="64" fill="#2cbfae" r="64"/></g><g id="icon"><path d="m53.421 47.505c-13.5 0-24.439 9.016-24.439 20.137 0 5.924 3.123 11.234 8.065 14.919l-4.3 9.844 11.129-6.222a28.915 28.915 0 0 0 9.55 1.6c13.5 0 24.44-9.016 24.44-20.138s-10.947-20.14-24.445-20.14z" fill="#3e6b82"/><path d="m68.1 28.158c17.078 0 30.922 11.408 30.922 25.48 0 7.5-3.952 14.213-10.2 18.875l5.438 12.456-14.08-7.869a36.573 36.573 0 0 1 -12.08 2.017c-17.077 0-30.921-11.408-30.921-25.479s13.84-25.48 30.921-25.48z" fill="#e1e6e9"/><path d="m81.414 47.209c-.614-7.309-10.556-8.237-12.895-2.021-.246.653-.6.653-.845 0-2.34-6.216-12.28-5.293-12.9 2.021-.453 5.379 1.652 12.866 13.317 19.468 11.671-6.602 13.775-14.089 13.323-19.468z" fill="#fe7058"/></g></svg>